<svg xmlns="http://www.w3.org/2000/svg" viewBox="0 0 196.55 154.77"><defs><style>.cls-1{fill:#4cb58e;fill-rule:evenodd;}</style></defs><title>Recurso 6</title><g id="Capa_2" data-name="Capa 2"><g id="Capa_1-2" data-name="Capa 1"><path class="cls-1" d="M0,51.36V61.77H0V93H0V103.4l72.84,40.86c26.29,14,24.53,14,50.87,0l72.84-40.86V93l-72.84,40.86c-26.32,14.75-24.55,14.76-50.87,0L9.28,98.2h0V67l63.56,35.65c26.29,14,24.53,14,50.87,0l72.84-40.85V51.36L123.71,92.22C97.39,107,99.16,107,72.84,92.22L9.28,56.57h0L72.84,20.92c26.32-14.76,24.55-14.76,50.87,0h0l26.45,14.83L122.33,51.36v0c-24.45-13-23.71-13-48.1,0v0L65,56.57l9.28,5.2c24.42-13.72,23.68-13.72,48.1,0h0l9.28-5.2L159.44,41l9.28-5.21-9.28-5.2-35.73-20h0c-26.34-14-24.58-14-50.87,0h0Z"/></g></g></svg>